<svg xmlns="http://www.w3.org/2000/svg" xmlns:xlink="http://www.w3.org/1999/xlink" width="64.819" height="64.839" viewBox="0 0 64.819 64.839">
  <defs>
    <clipPath id="clip-path">
      <rect id="Rectangle_26" data-name="Rectangle 26" width="64.819" height="64.839" fill="none"/>
    </clipPath>
  </defs>
  <g id="Group_30" data-name="Group 30" transform="translate(-433.591 -1532)">
    <g id="Group_13" data-name="Group 13" transform="translate(433.591 1532)">
      <g id="Group_12" data-name="Group 12" transform="translate(0 0)" clip-path="url(#clip-path)">
        <path id="Path_31" data-name="Path 31" d="M23.062,1.906l8.117,11.14,8.64,1.7c-.543-.952-1.11-1.892-1.727-2.8-.325-.479-1.81-2.262-1.89-2.572a.95.95,0,0,1,1.222-1.224c.646.195,3.093,4.008,3.584,4.8.35.561.836,1.794,1.186,2.194.48.551,2.061,1.482,2.762,2.1.782.693,1.454,1.53,2.23,2.232a30.073,30.073,0,0,1-.345-4.533C47.2,8.774,52.266,4.9,57.624,2.885a18.224,18.224,0,0,1,3.089-.972c.883-.026,1.631,1.868,1.968,2.6,2.863,6.248,3.475,13.052-2.122,17.926a26.219,26.219,0,0,1-8.575,4.53,24.828,24.828,0,0,1,2,6.915,27.148,27.148,0,1,1-53.9,6.463c-.124-1.263-.235-6.8.531-7.574a1.117,1.117,0,0,1,1.422.079c.449.523-.012,1.707-.062,2.363C-.1,62.7,35.794,73.414,48.981,50.326a25.259,25.259,0,0,0-7.2-33.128l-2.633,2.072a23.236,23.236,0,0,1,8.172,9.8A21.964,21.964,0,0,1,34.581,58.359,22.961,22.961,0,0,1,24.9,59.6c-1.323-.186-1.275-1.711-.416-1.876,1.189-.228,3.223.084,4.576-.021a20.692,20.692,0,0,0,9.721-3.656,20.1,20.1,0,0,0,7.929-20.651c-1.849.971-4.752,2.638-5,4.931-.392,3.631,1.485,5.216-.891,8.841-1.384,2.112-5.2,5.239-7.748,3.45-3.026-2.12-1.042-10-2.076-13.331-.19-.616-.281-.822-.97-.785-3.49.186-7.911,2.027-10.132-2.034-1.989-3.633-.291-7.047,2.626-9.45a16.754,16.754,0,0,1-7.794-2.952,18.685,18.685,0,0,0-6.1,7.864c1.266,1.2,2.245,4.89,3.665,5.656.98.528,2.292.545,3.25,1.345,2.464,2.056-.782,6.065-1.5,8.319-.488,1.526.15,1.625.669,2.921a12.42,12.42,0,0,1,.921,3.674c.045.8-.158,1.492-.067,2.229a12.19,12.19,0,0,0,1.871,1.239c.6.328,2.551.982,2.658,1.536.474,2.5-2.977.458-3.876-.05A22.061,22.061,0,0,1,9.3,24.834c1.074-1.487,2.468-2.673,3.615-4.058a36.082,36.082,0,0,1-7.9-9.813C4.67,10.306,3.974,9.231,4.2,8.519c.146-.453,3.029-2.576,3.626-3,6.039-4.243,13.837-7.37,21.092-4.276C29.977,1.7,34.079,4,34.357,5.008A1.018,1.018,0,0,1,33.1,6.127c-.624-.252-1.993-1.512-2.756-1.98a13.758,13.758,0,0,0-7.285-2.241M28.33,12.581,20.765,2.1c-1.818-.05-3.54.819-5.273,1.289l5.446,7.66ZM18.2,10.553,13.65,4.345a32.691,32.691,0,0,0-6.4,3.979Zm40.812-6.08c-.334-.319-6.621,2.978-7,4l2.541,6.4Zm-2.432,10.81,6.343-2.652A24.04,24.04,0,0,0,60.9,5.15Zm-5.948-5.134c-.309-.078-.221.058-.307.169-2.795,3.594-1.384,9.876.511,13.614l2.759-6.416Zm-32.837,2.3L6.845,10.285a35.393,35.393,0,0,0,4.817,6.606ZM28.2,14.475l-7.759-1.487-7.373,5.337c-.011.313,4.36,3.5,5.145,3.521Zm34.595.4-7.226,2.976-2.909,6.751c4.514-1.476,9.486-4.6,10.134-9.727M39.414,16.636l-8.683-1.593L20.359,22.715c6.91,1.647,13.793-1.916,19.055-6.078m-2.195,3.942c-.364.091-1.643,1.009-2.128,1.263a30.468,30.468,0,0,1-6.674,2.651c-.673.173-2.022.238-2.513.459a28.276,28.276,0,0,0-2.637,1.959c-2.015,1.79-3.213,4.335-1.561,6.825,1.069,1.609,2.759,1.531,4.529,1.414,2.666-.176,5.695-1.906,6.626,1.757.811,3.2-.036,6.925.487,10.188.389,2.407,1.388,2.674,3.433,1.439a8.114,8.114,0,0,0,3.142-3.751c.828-2.34-.85-5.257.277-8.1,1-2.533,3.82-3.854,5.953-5.259a20.147,20.147,0,0,0-6.678-9.509c-.415-.327-1.824-1.443-2.256-1.333m-23.483,32a11.36,11.36,0,0,0-.786-3.741c-.369-.854-1.068-1.536-1.076-2.543-.021-2.034,3.091-6.41,2.652-7.681-1.645-1.248-3.943-.994-4.9-3.209L7.793,32.177c-1.978,7.227.215,15.516,5.943,20.405" transform="translate(0 -0.001)" fill="#470005"/>
      </g>
    </g>
  </g>
</svg>
