<svg id="Group_17" data-name="Group 17" xmlns="http://www.w3.org/2000/svg" xmlns:xlink="http://www.w3.org/1999/xlink" width="68.662" height="68.278" viewBox="0 0 68.662 68.278">
  <defs>
    <clipPath id="clip-path">
      <rect id="Rectangle_28" data-name="Rectangle 28" width="68.662" height="68.278" fill="none"/>
    </clipPath>
  </defs>
  <g id="Group_16" data-name="Group 16" transform="translate(0 0)" clip-path="url(#clip-path)">
    <path id="Path_39" data-name="Path 39" d="M68.646,4.315V5.658L66.237,17.952a3.66,3.66,0,0,1-5.013,1.794A23.464,23.464,0,0,1,59.2,18.175c-.163,0-1.273,1.565-1.534,1.8a1.018,1.018,0,0,1-1.675-1.143,37.771,37.771,0,0,1,2.466-2.9c1.089-.719,2.071.8,2.893,1.414,1.191.891,1.886,1.28,3-.081L66.645,5.053a1.687,1.687,0,0,0-1.681-1.685L53.425,7.4a1.606,1.606,0,0,0-.85,2.21c.5,1.254,3.237,2.006,2.741,3.581-2.193,2.5-4.229,5.165-6.438,7.651-.8.9-1.2,1.6-2.411.666-3.477-3.022-6.737-6.672-10.256-9.6-.275-.229-.585-.4-.874-.6a16.823,16.823,0,0,0-.4,2.418,11.594,11.594,0,0,1-8.584,8.592c-1.634,2.039-2.879,5.085-4.507,7.035-.87,1.04-1.563.2-2.321-.452-3.06-2.635-5.88-5.592-8.926-8.248A2.075,2.075,0,0,0,7.814,23.7c3.269,2.655,6.242,6.142,9.495,8.752a1.662,1.662,0,0,0,.866.475,41.183,41.183,0,0,0,5.911,0,.6.6,0,0,0,.4-.131L34.406,17.35c.565-.585,1.017-.427,1.6-.005,3.445,2.854,6.653,6.73,10.119,9.471a2.207,2.207,0,0,0,2.943.125c1.509-1.457,2.912-3.89,4.425-5.237A1,1,0,0,1,55.086,22.9c-2.6,2.663-5.593,9.122-10.094,5.592-2.817-2.209-5.663-5.4-8.379-7.857-.186-.169-1.229-1.08-1.34-1.005l-8.447,13.3H68.043c.094,0,.468.565.6.671-.035.8.047,1.619,0,2.418A34.446,34.446,0,0,1,23.909,66.679c-1.027-.322-5.632-2.045-6.127-2.725a1,1,0,0,1,1.059-1.6,33.143,33.143,0,0,0,8.923,3.217L26.624,64.5A29.381,29.381,0,0,1,21.8,56.564c-.713-1.714-1.2-3.53-1.88-5.231a28.95,28.95,0,0,0-7.967,5.724c-.108.625,3.812,3.058,4.075,3.678a1.04,1.04,0,0,1-.935,1.483c-.52,0-2.626-1.774-3.152-2.222A34.835,34.835,0,0,1,.154,37.291c-.082-.851-.312-3.239.016-3.877a2.783,2.783,0,0,1,.452-.487h14.14l-8.575-8a4.1,4.1,0,0,1,5.69-5.837l8.716,8.058.261-.007,2.888-4.695A11.238,11.238,0,1,1,34.357,6.91c.169.413.6,2.114.711,2.243s2.08.509,2.35,1.138l9.85,9.2,5.644-6.573c-.895-1.146-2.215-1.666-2.459-3.333a3.645,3.645,0,0,1,2.476-4.165c2.862-1.235,6.878-2.588,9.884-3.527a9.48,9.48,0,0,1,1.88-.533,3.869,3.869,0,0,1,3.953,2.954m-46-2.247a9.443,9.443,0,0,0-7.877,8.361c-.7,8.97,10.519,13.646,16.27,6.768A9.268,9.268,0,0,0,22.642,2.068m-4.8,32.873H2.03a32.358,32.358,0,0,0,8.378,20.68,51.171,51.171,0,0,1,4.179-3.461c1.554-1.092,3.237-1.949,4.854-2.936a64.009,64.009,0,0,1-1.595-14.283m30.962,0H19.857a59.007,59.007,0,0,0,1.475,13.433c1.395-.374,2.726-.938,4.126-1.305a35.371,35.371,0,0,1,21.8,1.31,53.278,53.278,0,0,0,1.549-13.438m17.827,0H50.82a64.414,64.414,0,0,1-1.6,14.283c1.624.973,3.3,1.843,4.854,2.936a47.205,47.205,0,0,1,4.18,3.465,32.341,32.341,0,0,0,8.377-20.684M46.8,50.392a32.552,32.552,0,0,0-24.934.074,38.984,38.984,0,0,0,3.515,8.828c5.334,9.348,12.694,9.242,17.957-.084A37.495,37.495,0,0,0,46.8,50.392m10.052,6.845a28.16,28.16,0,0,0-8.106-5.909c-.684,1.7-1.17,3.52-1.884,5.235a30.278,30.278,0,0,1-4.088,7.053L40.9,65.567A31.622,31.622,0,0,0,55.44,58.445c.461-.4.84-1.017,1.411-1.208" transform="translate(0 0)" fill="#470005"/>
    <path id="Path_40" data-name="Path 40" d="M34.548,6.8c.063.077,1.369.3,1.789.826a1.057,1.057,0,0,1-.279,1.586c-.824.431-1.153-.351-1.889-.487-1.187-.219-2.439.387-2.02,1.756.167.547,2.705,1.329,3.309,1.652a3.676,3.676,0,0,1-.908,6.783c.233,2.091-2.258,2.385-2.031.125-1.021.03-3.758-1.175-2.48-2.428.8-.783,1.556.247,2.317.377,1.5.255,3.381-.259,2.956-2.155-.266-1.185-3.474-1.627-4.534-2.846a3.309,3.309,0,0,1,.683-4.7c.213-.152,1.013-.45,1.042-.5.181-.3-.209-1.619,1.006-1.552,1.177.066.912,1.4,1.039,1.559" transform="translate(-9.583 -1.689)" fill="#470005"/>
  </g>
</svg>
