<svg xmlns="http://www.w3.org/2000/svg" xmlns:xlink="http://www.w3.org/1999/xlink" width="72.691" height="72.694" viewBox="0 0 72.691 72.694">
  <defs>
    <clipPath id="clip-path">
      <rect id="Rectangle_27" data-name="Rectangle 27" width="72.691" height="72.694" transform="translate(0 0)" fill="none"/>
    </clipPath>
  </defs>
  <g id="Group_31" data-name="Group 31" transform="translate(0 0)">
    <g id="Group_14" data-name="Group 14" clip-path="url(#clip-path)">
      <path id="Path_32" data-name="Path 32" d="M23.991,0c.2.171.852.69.852.923V2.981h6.1V.781c0-.2.536-.631.71-.781h.852c1.139.662.82,1.848.851,2.981h5.963c.031-1.133-.288-2.319.851-2.981h.852c.174.15.71.577.71.781v2.2h6.1V.923c0-.233.655-.752.852-.923h.71c.187.139.852.558.852.781V21.862h2.981V11.854a1.9,1.9,0,0,1,.713-1.133l13.131-.077a1.1,1.1,0,0,1,1,.7l.076,18.1c1.077,3.334,3.192,6.617,4.314,9.881.558,1.622-.245,2.038-1.774,2.067l0,28.879c1.674-.342,2.825,1.221,1.242,2.3L1.342,72.69c-.658.049-.98-.409-1.342-.858v-.71c.165-.277.577-.852.923-.852H19.164V58.416a6.633,6.633,0,0,0-.777-1.494,3.987,3.987,0,0,0-4.906-1.066c-3.554,1.695-1.5,6.869-2.154,9.77a1.21,1.21,0,0,1-2.376-.12,45.079,45.079,0,0,1,.007-6.933c.87-7.843,12.762-6.973,12.762.695v11h4.968V54.016a12.916,12.916,0,0,1,.684-2.3,9.733,9.733,0,0,1,14.7-4.138c5.878,4.287,3.427,11.682,3.919,17.925a1.217,1.217,0,0,1-2.408-.272c-.458-3.834.953-10.009-.876-13.32A7.261,7.261,0,0,0,30.666,50.9,8.533,8.533,0,0,0,29.1,54.3V70.27H50.963v-11c0-6.81,10.045-8.783,12.419-2.055.515,1.459.554,6.927.361,8.588a1.229,1.229,0,0,1-2.386.251c-.239-2.3.223-4.941-.046-7.194A3.96,3.96,0,0,0,54.3,56.922a6.633,6.633,0,0,0-.777,1.494V70.27H68.282V39.82c0-.3.877-1.051,1.278-.924l-3.277-7.582-.477-.233-59.063.008-.343.225L3.123,38.9H62.817c.356,0,.915.805.933,1.21s-.379,1.2-.791,1.2H4.4V65.656a4.466,4.466,0,0,1-.329.6c-.592.643-2.085.236-2.085-.453V41.31c-.938.077-1.559.039-1.987-.851v-.71l4.824-10.72a2.139,2.139,0,0,1,.5-.353h60.4V13.06H55.79v9.866a1.443,1.443,0,0,1-1.345,1.352,34.567,34.567,0,0,1-5.385-.016c-.4-.056-1.22-.5-1.22-.91V5.394h-23V23.352c0,.409-.821.854-1.22.91a34.567,34.567,0,0,1-5.385.016,1.443,1.443,0,0,1-1.345-1.352V13.06H6.956V24.63a2.266,2.266,0,0,1-.573.7,1.186,1.186,0,0,1-1.832-.854c.263-4.066-.379-8.627-.015-12.633.064-.713.294-1.113,1.068-1.2l13.131.077a1.9,1.9,0,0,1,.713,1.133V21.862h2.981V.781c0-.223.665-.642.852-.781Z" fill="#470005"/>
      <path id="Path_33" data-name="Path 33" d="M13.16,47.018a29.131,29.131,0,0,1,4.2,0,1.21,1.21,0,0,1-.287,2.349,18.449,18.449,0,0,1-3.625,0,1.255,1.255,0,0,1-.287-2.351" fill="#470005"/>
      <path id="Path_34" data-name="Path 34" d="M55.324,47.019a29.131,29.131,0,0,1,4.2,0,1.257,1.257,0,0,1-.406,2.375,17.326,17.326,0,0,1-3.729-.085,1.2,1.2,0,0,1-.064-2.289" fill="#470005"/>
      <path id="Path_35" data-name="Path 35" d="M34.167,14.1a1.33,1.33,0,0,1,.335.73,16.713,16.713,0,0,1-.037,2.956,1.219,1.219,0,0,1-2.349-.144,13.828,13.828,0,0,1,0-2.919,1.263,1.263,0,0,1,2.055-.623" fill="#470005"/>
      <path id="Path_36" data-name="Path 36" d="M40.271,18.268a1.253,1.253,0,0,1-2.054-.482,16.993,16.993,0,0,1-.022-3.086,1.228,1.228,0,0,1,2.375.023c.142.631.129,3.078-.3,3.545" fill="#470005"/>
      <path id="Path_37" data-name="Path 37" d="M10.976,16.8a1.232,1.232,0,0,1,1.99.546,9.5,9.5,0,0,1,.065,2.715,1.248,1.248,0,0,1-2.167.523c-.358-.5-.376-3.339.112-3.784" fill="#470005"/>
      <path id="Path_38" data-name="Path 38" d="M61.708,16.8c.488.445.47,3.285.112,3.784a1.248,1.248,0,0,1-2.167-.523,9.5,9.5,0,0,1,.065-2.715,1.232,1.232,0,0,1,1.99-.546" fill="#470005"/>
    </g>
  </g>
</svg>
