<svg xmlns="http://www.w3.org/2000/svg" xmlns:xlink="http://www.w3.org/1999/xlink" width="68.662" height="78.708" viewBox="0 0 68.662 78.708">
  <defs>
    <clipPath id="clip-path">
      <rect id="Rectangle_29" data-name="Rectangle 29" width="68.662" height="78.708" fill="none"/>
    </clipPath>
  </defs>
  <g id="Group_29" data-name="Group 29" transform="translate(-1145.169 -1205)">
    <g id="Group_19" data-name="Group 19" transform="translate(1145.169 1205)">
      <g id="Group_18" data-name="Group 18" clip-path="url(#clip-path)">
        <path id="Path_41" data-name="Path 41" d="M10.557,81.6a1.459,1.459,0,0,1-.771-1.15c-.408-3.456.343-7.651-.034-11.188A22.386,22.386,0,0,1,4.859,56.872,5.465,5.465,0,0,1,2.4,46.91c-.188-6.523-.066-12.372,3.8-17.868,5.6-7.95,13.594-9.451,22.842-8.931,1.537.086,6.05.793,7.216,1.687a1.193,1.193,0,0,1-.747,2.109c-.619-.035-2.2-.765-3.014-.956a35.9,35.9,0,0,0-14,.122A18.707,18.707,0,0,0,5.079,37.449a50.921,50.921,0,0,0-.353,8.641c1.016-.1,2,.033,1.839,1.292-.139,1.105-1.639.915-2.451,1.245a3.169,3.169,0,0,0-.235,5.616C5.1,54.9,6.316,54.3,7.1,55.317,7.131,67.242,17.58,76.326,29.434,74a18.708,18.708,0,0,0,14.5-14.679c.253-1.359.237-2.762.49-4.121.311-.69,1.39-.449,2.042-.566,3.25-.585,3.65-4.978.8-6.049-.885-.333-2.3.021-2.357-1.341-.05-1.177.915-1.228,1.852-1.149.164-.163-.258-3.758.17-4.517.48-.848,1.953-.464,2.123.6.222,1.414-.175,3.264.037,4.728a5.562,5.562,0,0,1-2.571,10.087A21.355,21.355,0,0,1,41.771,69.14c-.4,3.521.3,7.539-.068,11a1.868,1.868,0,0,1-.767,1.46h-.921l-.621-.992.007-9a21.025,21.025,0,0,1-27.31,0v9.3c0,.108-.645.537-.767.692Z" transform="translate(0 -2.892)" fill="#470005"/>
        <path id="Path_42" data-name="Path 42" d="M73.136,0c.18.2.457.312.6.554.428.739-.35,3.491-.642,4.4-2.171,6.754-7.918,11.041-14.763,12.265L44.905,30.745h4.219c.133,0,1.75-1.236,2.218-1.467a15.112,15.112,0,0,1,15.4,1.188c1.792,1.332,1.514,1.906-.216,3.109a15.307,15.307,0,0,1-17.714-.517l-6.126,0-.318.141-4.586,4.629c-1.273.583-2.217-.323-1.627-1.631l9.335-9.4V20.862a15.347,15.347,0,0,1-.952-17.007c.923-1.547,1.784-3.106,3.349-1.229,3.333,3.994,3.706,10.494,1.651,15.156-.26.589-1.714,2.726-1.714,2.894v3.766l8.9-8.835C57.885,8.844,62.059,3.221,68.607.92L72.061,0ZM71.294,2.614A14.99,14.99,0,0,0,59.482,14.449,15.076,15.076,0,0,0,71.294,2.614M46.744,18.293A13.834,13.834,0,0,0,48.392,9.65,13.207,13.207,0,0,0,46.93,5.427c-.106-.161-.161-.393-.412-.355-2.34,3.906-2.575,9.506.227,13.221M64.7,31.824A12.888,12.888,0,0,0,53.992,30.7c-.432.144-2.492.9-2.491,1.347a13.076,13.076,0,0,0,9.336,1.514c.348-.074,4.172-1.286,3.86-1.741" transform="translate(-5.197)" fill="#470005"/>
        <path id="Path_43" data-name="Path 43" d="M66.529,22.33a9.51,9.51,0,0,1,5.505,1.312c1.923,1.108,2.877,2.056.623,3.6a9.4,9.4,0,0,1-10.034.452c-2.322-1.286-2.993-2.248-.439-3.874a9.971,9.971,0,0,1,4.345-1.488M70.7,25.817c.258-.346-1.027-.77-1.234-.835a6.657,6.657,0,0,0-5.669.608c-.129.25.56.434.727.5a7.681,7.681,0,0,0,6.175-.272" transform="translate(-8.748 -3.222)" fill="#470005"/>
      </g>
    </g>
  </g>
</svg>
