<svg xmlns="http://www.w3.org/2000/svg" xmlns:xlink="http://www.w3.org/1999/xlink" width="51.411" height="63.922" viewBox="0 0 51.411 63.922">
  <defs>
    <clipPath id="clip-path">
      <rect id="Rectangle_12" data-name="Rectangle 12" width="51.411" height="63.922" fill="#470005"/>
    </clipPath>
  </defs>
  <g id="Group_27" data-name="Group 27" transform="translate(-439.794 -1205.539)">
    <g id="Group_5" data-name="Group 5" transform="translate(439.794 1205.539)">
      <g id="Group_4" data-name="Group 4" clip-path="url(#clip-path)">
        <path id="Path_13" data-name="Path 13" d="M34.131,7.995,34.1,20.861l.248,1.461c4.98,9.919,10.941,19.374,16.3,29.114a9.041,9.041,0,0,1-7.075,12.48L7.98,63.922A9.092,9.092,0,0,1,.326,52.557c5.2-10.3,11.727-19.973,16.775-30.345l.214-1.352,0-12.807a4,4,0,0,1,.2-7.913C22.63.474,28.288-.3,33.33.137a4,4,0,0,1,.8,7.857m.213-2.633A1.727,1.727,0,0,0,33.182,2.42l-15.508.009A1.717,1.717,0,0,0,17.8,5.84c4.9-.35,10.416.454,15.241,0a2.189,2.189,0,0,0,1.3-.481M31.83,8.114H19.587V21.567A13.506,13.506,0,0,1,18.55,24.8c-1.178,2.56-3.039,5.087-4.358,7.6-.089.236.1.218.268.267,5.954,1.755,10.579-2.864,16.154-3.207a18.554,18.554,0,0,1,5.059.432c-.807-1.806-2.03-3.4-2.826-5.216a15.146,15.146,0,0,1-1.017-2.969ZM30.378,31.788c-3.8.338-6.308,2.624-10.047,3.192a24.657,24.657,0,0,1-4.949.187A14.148,14.148,0,0,0,12.9,34.8L2.787,52.6a6.662,6.662,0,0,0,5.485,9.041c11.936-.118,23.923.244,35.83-.184a6.589,6.589,0,0,0,4.492-8.963c-3.811-6.08-6.9-13.12-10.813-19.081-.612-.934-1.469-1.07-2.532-1.311a15.783,15.783,0,0,0-4.87-.312" transform="translate(0 0)" fill="#470005"/>
        <path id="Path_14" data-name="Path 14" d="M133.142,202.012c6.463-.943,7.245,8.318,1.372,8.915-5.948.6-6.752-8.13-1.372-8.915m.28,2.274c-2.254.468-2.076,4.035.119,4.37,3.59.549,3.5-5.121-.119-4.37" transform="translate(-104.905 -163.539)" fill="#470005"/>
        <path id="Path_15" data-name="Path 15" d="M50.115,240.365c5.351-.571,6.943,7.289,1.854,8.828-6.39,1.933-8.188-8.153-1.854-8.828m-1.057,6.174c2.565,2.358,5.571-2.321,2.468-3.678a2.247,2.247,0,0,0-2.468,3.678" transform="translate(-37.393 -194.629)" fill="#470005"/>
        <path id="Path_16" data-name="Path 16" d="M166.6,270.322c5.97-.546,6.613,8.625.812,9.071-5.95.458-6.6-8.542-.812-9.071m.14,2.267c-2.79.384-2.426,4.683.384,4.534,2.991-.159,2.575-4.942-.384-4.534" transform="translate(-131.665 -218.894)" fill="#470005"/>
        <path id="Path_17" data-name="Path 17" d="M224.687,276.109a1.142,1.142,0,1,1,.5,2.224,1.154,1.154,0,0,1-.5-2.224" transform="translate(-181.367 -223.553)" fill="#470005"/>
        <path id="Path_18" data-name="Path 18" d="M125.184,282.409c1.027,1.122-.639,2.688-1.617,1.619-1.027-1.122.639-2.688,1.617-1.619" transform="translate(-99.806 -228.412)" fill="#470005"/>
        <path id="Path_19" data-name="Path 19" d="M198.939,231.4c1.32-.174,1.648,1.957.506,2.219a1.142,1.142,0,1,1-.506-2.219" transform="translate(-160.315 -187.385)" fill="#470005"/>
        <path id="Path_20" data-name="Path 20" d="M97.6,219.533c1.317-.072,1.6,2.012.4,2.235a1.139,1.139,0,1,1-.4-2.235" transform="translate(-78.208 -177.781)" fill="#470005"/>
        <path id="Path_21" data-name="Path 21" d="M74.375,297.815a1.142,1.142,0,1,1,.5,2.225c-1.4.182-1.573-1.9-.5-2.225" transform="translate(-59.668 -241.131)" fill="#470005"/>
      </g>
    </g>
  </g>
</svg>
