<svg xmlns="http://www.w3.org/2000/svg" xmlns:xlink="http://www.w3.org/1999/xlink" width="60.592" height="64.839" viewBox="0 0 60.592 64.839">
  <defs>
    <clipPath id="clip-path">
      <rect id="Rectangle_25" data-name="Rectangle 25" width="60.592" height="64.839" fill="none"/>
    </clipPath>
  </defs>
  <g id="Group_28" data-name="Group 28" transform="translate(-791.704 -1212)">
    <g id="Group_11" data-name="Group 11" transform="translate(791.704 1212)">
      <g id="Group_10" data-name="Group 10" clip-path="url(#clip-path)">
        <path id="Path_27" data-name="Path 27" d="M8.206,218.988H6.938a4.073,4.073,0,0,1-2.6-2.025c-1.184-4.406-2.993-8.874-4.058-13.288-.838-3.476.232-5.244,2.724-7.531a21.441,21.441,0,0,1,15.54-5.635c2.472.169,4.2,1.293,6.216,2.528,4.359.34,9.369-.442,13.651.043a5.178,5.178,0,0,1,3.712,2.241l10.8-8.96a4.87,4.87,0,0,1,6.445,7.192c-1.024,1.247-2.587,2.531-3.746,3.728-4.267,4.41-8.579,8.845-13.017,13.078a6.031,6.031,0,0,1-2.888,1.04l-23.178.026c-3.966.926-4.54,6.4-8.336,7.563m34.77-21.615a5.122,5.122,0,0,1-4.651,5.421c-4.566.359-9.594-.28-14.209,0A1.09,1.09,0,0,1,24,200.645c4.537-.318,9.6.4,14.073,0a2.728,2.728,0,0,0-.127-5.451c-4.331-.371-9.175.3-13.561-.006-1.091-.142-1.541-.8-2.367-1.308-4.4-2.689-11.549-.557-15.5,2.228-2.116,1.492-5.167,3.87-4.209,6.812l4.068,13.278a1.462,1.462,0,0,0,2.02.389c2.488-2.6,4.126-7.06,8.236-7.346,7.391-.514,15.381.393,22.834.01,1.852-.159,2.333-1.089,3.479-2.223,4.969-4.913,9.844-9.917,14.779-14.864a2.723,2.723,0,0,0-3.053-4.312,5.616,5.616,0,0,0-1.132.769c-3.6,2.713-6.917,6.065-10.565,8.754" transform="translate(0 -154.149)" fill="#470005"/>
        <path id="Path_28" data-name="Path 28" d="M29.35,56.188a17.428,17.428,0,0,1,9.538,1.541c4.557,2.432,6.714,8.18,6.91,13.1l4,3.349c.5,1.091-.391,1.947-1.5,1.494l-3.8-3.05c-.286-.078-.9.259-1.274.326-8.329,1.48-14.738-2.006-16.984-10.189-.954-3.475-1.348-6.2,3.109-6.57m14.1,12.744c-.823-4.528-2.678-8.414-7.288-10-1.825-.628-6.006-1-7.808-.448-1.034.315-.377,2.3-.184,3.109,1.762,7.389,6.314,9.9,13.7,9.363.189-.014.367.1.314-.188L31.59,62.228a1.085,1.085,0,0,1,1.24-1.745Z" transform="translate(-21.296 -46.615)" fill="#470005"/>
        <path id="Path_29" data-name="Path 29" d="M153.727,23.6a7.417,7.417,0,0,1-2.581-2.3c-5.431-6.516-5.172-13.109.508-19.367,2.408-2.653,3.91-2.539,6.282.062,2.189,2.4,4.267,6.067,4.433,9.37.232,4.6-2.95,9.541-6.445,12.3-.153,1.367.132,2.941-.021,4.282-.148,1.293-1.409,1.726-2.129.607Zm2.176-2.8c3.005-3.206,5.14-7,3.867-11.516a16.362,16.362,0,0,0-3.548-5.95c-.334-.356-1.022-1.168-1.514-1.136-.508.033-1.736,1.519-2.1,1.964-4.814,5.919-4.006,10.993.848,16.476.076.086-.009.241.29.162V7.194c0-.532,1.254-.937,1.782-.386a4.045,4.045,0,0,1,.374.766Z" transform="translate(-122.337 -0.001)" fill="#470005"/>
        <path id="Path_30" data-name="Path 30" d="M237.365,64.075c3.064-.08,2.982,2.659,2.811,4.963-.505,6.819-5.839,10.055-12.3,9.612L224.4,82.4c-1.137.543-2.181-.521-1.444-1.567l3.635-3.973c-.844-7.262,3.315-12.586,10.775-12.783m.657,2.244c-4.959-.264-9.614,2.873-9.194,8.225l5-5.383a1.085,1.085,0,0,1,1.637,1.381l-5.435,5.839c-.029.339.064.114.223.1,4.026-.428,7.764-3.028,7.764-7.438Z" transform="translate(-185.055 -53.241)" fill="#470005"/>
      </g>
    </g>
  </g>
</svg>
